<svg xmlns="http://www.w3.org/2000/svg" width="1254" height="836" viewBox="0 0 1254 836">
<g>
<path d="M 748.95 291.95 C748.37,276.07 742.29,266.71 736.11,272.89 C735.07,273.93 731.59,282.71 728.38,292.39 C725.17,302.08 722.24,310.00 721.87,310.00 C720.09,310.00 717.05,290.06 717.02,278.21 L 717.00 269.92 L 710.47 262.42 C702.36,253.13 698.12,246.52 694.47,237.50 C691.97,231.31 691.63,229.20 691.57,219.25 C691.53,213.07 691.25,208.01 690.95,208.00 C690.65,208.00 689.97,208.38 689.45,208.86 C688.28,209.91 672.32,216.22 665.50,218.32 C639.36,226.39 612.80,230.11 581.03,230.13 C565.66,230.14 559.31,230.48 558.78,231.32 C558.37,231.97 558.02,233.85 558.01,235.50 C558.00,237.15 556.68,245.62 555.07,254.33 C552.20,269.84 552.16,270.55 552.99,289.83 C553.45,300.65 553.65,309.69 553.42,309.92 C552.53,310.81 551.64,308.56 545.67,290.33 C538.78,269.29 538.21,268.59 532.57,274.23 C530.18,276.62 528.69,279.21 527.88,282.94 C528.18,280.73 528.70,279.48 529.58,277.97 C531.65,274.48 531.65,274.39 529.83,267.97 C527.66,260.32 525.43,246.72 524.49,235.33 L 523.81 227.15 L 518.43 223.59 C512.84,219.87 506.22,212.31 502.95,205.91 C499.34,198.83 497.90,181.00 500.94,181.00 C501.40,181.00 503.97,182.82 506.64,185.03 C511.91,189.41 519.73,193.56 524.50,194.50 C527.49,195.09 527.49,195.09 523.95,193.13 C517.97,189.81 511.96,183.14 508.67,176.16 C505.98,170.44 505.53,168.37 505.52,161.48 C505.50,154.44 505.90,152.65 508.73,146.91 C510.50,143.30 512.82,139.57 513.88,138.60 C515.73,136.94 515.98,136.94 519.16,138.66 C521.76,140.06 524.82,140.46 533.00,140.48 L 543.50 140.50 L 554.00 135.07 C578.57,122.35 586.51,119.36 603.32,116.44 C614.96,114.42 634.27,114.86 645.85,117.40 C667.49,122.15 686.48,135.01 694.75,150.50 L 697.95 156.50 L 697.97 151.80 C698.01,146.13 696.28,137.52 694.35,133.75 C692.96,131.02 692.98,131.00 696.22,131.00 C702.78,131.01 710.89,137.66 715.12,146.50 C717.46,151.37 718.00,153.84 718.00,159.62 L 718.00 166.74 L 721.84 167.36 C731.53,168.91 742.33,176.85 746.89,185.79 C752.32,196.43 754.18,204.77 754.74,220.98 C755.38,239.65 753.99,253.13 749.91,267.64 C747.45,276.43 747.12,278.79 747.97,281.84 C748.44,283.51 748.83,287.72 748.95,291.95 ZM 527.68 304.17 C528.13,308.12 528.97,310.67 530.81,315.00 C532.56,319.12 535.85,324.65 538.11,327.29 C535.85,324.65 532.54,319.12 530.75,315.00 C528.74,310.36 527.97,308.36 527.68,304.17 Z" fill="rgba(1,1,1,1)"/>
<path d="M 467.00 739.00 L 466.96 734.25 C466.88,722.29 465.00,702.50 463.92,702.14 C463.17,701.89 463.13,701.54 463.80,701.12 C465.55,700.04 456.48,620.99 450.96,589.22 C447.67,570.28 446.81,566.27 440.88,542.15 C438.67,533.16 437.09,525.58 437.36,525.30 C439.74,522.93 454.18,566.97 460.38,595.50 C465.39,618.57 477.65,690.99 482.47,725.94 C483.33,732.23 484.30,737.63 484.60,737.94 C485.30,738.63 795.64,738.69 796.33,738.00 C796.61,737.72 798.92,720.85 801.47,700.50 C813.16,607.21 824.51,553.66 837.99,528.13 C840.89,522.64 840.42,526.27 836.03,543.20 C827.78,575.04 821.55,617.10 816.00,678.50 C814.74,692.48 814.37,700.62 815.00,700.83 C815.54,701.01 815.31,701.83 814.49,702.65 C813.49,703.65 813.00,706.18 813.00,710.32 C812.99,713.72 812.70,721.56 812.34,727.75 L 811.69 739.00 L 467.00 739.00 ZM 670.29 505.17 C659.63,507.93 656.73,508.26 640.00,508.57 C618.62,508.98 610.35,507.87 594.13,502.45 C568.63,493.91 548.26,477.92 540.36,460.22 C539.06,457.32 538.03,454.17 538.06,453.22 C538.09,452.27 539.15,453.75 540.41,456.50 C550.62,478.70 578.62,497.21 611.66,503.61 C623.55,505.92 649.14,505.96 661.59,503.70 C677.94,500.74 694.14,494.10 707.50,484.90 C719.91,476.35 727.16,468.55 733.64,456.79 C736.64,451.34 737.01,450.97 736.44,454.00 C734.77,462.90 723.60,476.83 710.17,486.78 C699.94,494.35 684.38,501.52 670.29,505.17 Z" fill="rgba(108,169,51,1)"/>
<path d="M 627.35 485.75 C627.60,486.16 632.35,486.50 637.90,486.50 C643.46,486.50 648.00,486.16 648.00,485.75 C648.00,485.34 649.52,485.00 651.37,485.00 C661.22,485.00 684.09,476.72 694.11,469.51 C696.80,467.58 699.28,466.00 699.62,466.00 C700.66,466.00 708.51,457.55 708.24,456.72 C708.10,456.29 708.66,455.68 709.48,455.37 C710.31,455.05 710.74,454.39 710.44,453.90 C710.13,453.40 710.39,453.00 711.00,453.00 C711.61,453.00 711.84,452.55 711.50,452.00 C711.16,451.45 711.27,451.00 711.74,451.00 C712.21,451.00 712.69,449.52 712.81,447.71 C712.98,445.19 712.25,443.57 709.66,440.74 C707.80,438.71 706.52,436.82 706.81,436.53 C707.10,436.24 706.85,436.00 706.25,436.00 C705.36,436.00 704.20,434.65 703.02,432.44 C704.46,434.19 707.16,435.75 712.32,437.89 C716.82,439.75 724.78,443.07 730.00,445.26 C735.22,447.45 741.53,450.04 744.00,451.01 C746.47,451.97 761.55,458.04 777.50,464.47 C793.45,470.91 811.22,477.89 817.00,479.98 C834.51,486.31 842.73,490.95 852.38,499.95 C867.32,513.89 878.57,539.66 887.55,580.50 C888.28,583.80 890.05,591.67 891.48,598.00 C895.55,615.91 907.00,673.72 907.00,676.34 C907.00,678.43 906.00,678.98 897.75,681.44 C892.66,682.95 887.67,684.42 886.66,684.69 C885.12,685.11 884.92,685.86 885.37,690.33 L 884.85 685.37 L 869.17 689.53 C860.55,691.82 844.62,695.65 833.76,698.04 C820.98,700.85 815.28,702.41 813.91,703.52 C814.08,703.16 814.27,702.87 814.49,702.65 C815.31,701.83 815.54,701.01 815.00,700.83 C814.37,700.62 814.74,692.48 816.00,678.50 C821.55,617.10 827.78,575.04 836.03,543.20 C840.42,526.27 840.89,522.64 837.99,528.13 C824.51,553.66 813.16,607.21 801.47,700.50 C798.92,720.85 796.61,737.72 796.33,738.00 C795.64,738.69 485.30,738.63 484.60,737.94 C484.30,737.63 483.33,732.23 482.47,725.94 C477.65,690.99 465.39,618.57 460.38,595.50 C454.18,566.97 439.74,522.93 437.36,525.30 C437.09,525.58 438.67,533.16 440.88,542.15 C446.81,566.27 447.67,570.28 450.96,589.22 C456.48,620.99 465.55,700.04 463.80,701.12 C463.13,701.54 463.17,701.89 463.92,702.14 C463.94,702.15 463.96,702.16 463.98,702.17 L 454.66 700.11 C444.40,697.83 395.83,686.29 392.93,685.44 C391.67,685.07 391.27,687.56 390.39,704.34 C390.48,702.61 390.56,700.96 390.63,699.48 L 391.29 685.46 L 380.11 682.08 C373.96,680.21 368.74,678.39 368.51,678.02 C368.28,677.65 368.69,674.91 369.41,671.93 C370.14,668.94 371.98,660.42 373.51,653.00 C375.04,645.58 377.84,632.53 379.72,624.00 C381.60,615.47 383.81,605.35 384.62,601.50 C390.01,575.96 400.68,539.35 406.45,526.57 C412.83,512.46 422.47,500.51 433.32,493.25 C441.13,488.02 442.65,487.34 475.50,474.44 C496.04,466.36 515.48,458.51 526.00,454.02 C564.50,437.62 569.96,435.38 571.90,433.03 C569.97,436.44 567.70,439.43 565.35,441.50 C562.18,444.28 562.01,444.74 562.93,447.86 C565.60,456.88 579.75,469.78 594.44,476.57 C602.47,480.28 619.06,485.00 624.07,485.00 C625.62,485.00 627.09,485.34 627.35,485.75 ZM 670.29 505.17 C684.38,501.52 699.94,494.35 710.17,486.78 C723.60,476.83 734.77,462.90 736.44,454.00 C737.01,450.97 736.64,451.34 733.64,456.79 C727.16,468.55 719.91,476.35 707.50,484.90 C694.14,494.10 677.94,500.74 661.59,503.70 C649.14,505.96 623.55,505.92 611.66,503.61 C578.62,497.21 550.62,478.70 540.41,456.50 C539.15,453.75 538.09,452.27 538.06,453.22 C538.03,454.17 539.06,457.32 540.36,460.22 C548.26,477.92 568.63,493.91 594.13,502.45 C610.35,507.87 618.62,508.98 640.00,508.57 C656.73,508.26 659.63,507.93 670.29,505.17 ZM 493.45 414.55 C490.45,411.54 490.39,410.05 493.12,406.58 C495.86,403.09 500.44,403.34 503.26,407.13 C508.16,413.72 499.32,420.41 493.45,414.55 ZM 389.33 726.25 C389.36,725.58 389.40,724.87 389.43,724.11 C389.16,730.23 388.98,734.72 388.99,735.75 L 389.00 739.00 L 388.69 739.00 ZM 466.12 717.35 C466.54,722.48 466.86,728.08 466.95,732.75 L 466.60 725.75 C466.46,722.97 466.29,720.05 466.12,717.35 ZM 812.98 711.90 C812.99,711.31 813.00,710.77 813.00,710.32 C813.00,708.03 813.15,706.22 813.46,704.90 C813.32,706.23 813.15,708.73 812.98,711.90 ZM 696.51 401.51 C696.98,409.27 697.92,416.40 699.16,421.99 C699.05,421.56 698.94,421.12 698.84,420.68 C697.85,416.45 696.96,409.04 696.51,401.51 ZM 575.86 423.76 C576.57,420.97 577.20,417.62 577.74,413.65 C577.32,416.95 576.89,419.68 576.53,421.24 C576.34,422.08 576.11,422.92 575.86,423.76 ZM 811.82 739.00 L 811.69 739.00 L 812.11 731.75 L 811.82 739.00 Z" fill="rgba(149,207,74,1)"/>
<path d="M 388.99 735.75 C388.98,733.96 389.51,721.81 390.17,708.74 C391.21,687.98 391.56,685.04 392.93,685.44 C395.83,686.29 444.40,697.83 454.66,700.11 L 464.81 702.36 L 465.37 707.43 C465.68,710.22 466.23,718.46 466.60,725.75 L 467.26 739.00 L 428.13 739.00 L 389.00 739.00 L 388.99 735.75 ZM 812.49 722.25 C812.86,713.04 813.35,704.80 813.59,703.94 C813.90,702.80 819.29,701.22 833.76,698.04 C844.62,695.65 860.55,691.82 869.17,689.53 L 884.85 685.37 L 885.44 690.93 C885.99,696.17 887.98,731.85 887.99,736.75 L 888.00 739.00 L 849.91 739.00 L 811.82 739.00 L 812.49 722.25 ZM 627.35 485.75 C627.09,485.34 625.62,485.00 624.07,485.00 C619.06,485.00 602.47,480.28 594.44,476.57 C579.75,469.78 565.60,456.88 562.93,447.86 C562.01,444.74 562.18,444.28 565.35,441.50 C570.21,437.22 574.71,429.07 576.53,421.24 C577.39,417.53 578.61,407.26 579.24,398.40 L 580.38 382.31 L 576.22 377.37 C568.54,368.26 559.93,350.92 557.55,339.75 C557.10,337.63 556.38,337.00 554.45,337.00 C550.26,337.00 542.47,332.37 538.11,327.29 C535.85,324.66 532.56,319.12 530.81,315.00 C528.06,308.54 527.56,306.04 527.21,296.99 C526.71,284.19 527.97,278.83 532.57,274.23 C538.21,268.59 538.78,269.29 545.67,290.33 C551.64,308.56 552.53,310.81 553.42,309.92 C553.65,309.69 553.45,300.65 552.99,289.83 C552.16,270.55 552.20,269.84 555.07,254.33 C556.68,245.62 558.00,237.15 558.01,235.50 C558.02,233.85 558.37,231.97 558.78,231.32 C559.31,230.48 565.66,230.14 581.03,230.13 C612.80,230.11 639.36,226.39 665.50,218.32 C672.32,216.22 688.28,209.91 689.45,208.86 C689.97,208.38 690.65,208.00 690.95,208.00 C691.25,208.01 691.53,213.07 691.57,219.25 C691.63,229.20 691.97,231.31 694.47,237.50 C698.12,246.52 702.36,253.13 710.47,262.42 L 717.00 269.92 L 717.02 278.21 C717.05,290.06 720.09,310.00 721.87,310.00 C722.24,310.00 725.17,302.08 728.38,292.39 C731.59,282.71 735.07,273.93 736.11,272.89 C742.61,266.39 749.00,277.08 749.00,294.48 C749.00,308.31 745.25,318.92 737.09,328.17 C732.88,332.94 726.05,337.00 722.23,337.00 C720.44,337.00 719.74,338.16 718.01,343.96 C715.14,353.60 708.15,367.09 701.40,376.00 L 695.73 383.49 L 696.33 398.00 C696.69,406.67 697.70,415.79 698.84,420.68 C700.75,428.86 704.20,436.00 706.25,436.00 C706.85,436.00 707.10,436.24 706.81,436.53 C706.52,436.82 707.80,438.71 709.66,440.74 C712.25,443.57 712.98,445.19 712.81,447.71 C712.69,449.52 712.21,451.00 711.74,451.00 C711.27,451.00 711.16,451.45 711.50,452.00 C711.84,452.55 711.61,453.00 711.00,453.00 C710.39,453.00 710.13,453.40 710.44,453.90 C710.74,454.39 710.31,455.05 709.48,455.37 C708.66,455.68 708.10,456.29 708.24,456.72 C708.51,457.55 700.66,466.00 699.62,466.00 C699.28,466.00 696.80,467.58 694.11,469.51 C684.09,476.72 661.22,485.00 651.37,485.00 C649.52,485.00 648.00,485.34 648.00,485.75 C648.00,486.16 643.46,486.50 637.90,486.50 C632.35,486.50 627.60,486.16 627.35,485.75 Z" fill="rgba(253,212,174,1)"/>
</g>
</svg>