<svg xmlns="http://www.w3.org/2000/svg" width="1254" height="836" viewBox="0 0 1254 836">
<g>
<path d="M 756.46 485.75 C752.95,484.63 749.30,483.49 745.50,482.33 C735.60,479.29 721.08,474.80 713.24,472.34 C687.04,464.12 684.94,460.53 683.48,421.28 L 682.80 403.05 L 687.28 397.78 C696.03,387.47 704.96,371.21 709.50,357.30 C711.18,352.14 711.24,352.09 716.74,350.86 C730.42,347.80 742.08,335.55 747.09,319.00 C752.52,301.02 747.64,284.00 737.05,284.00 C734.96,284.00 732.79,284.56 732.23,285.25 C731.68,285.94 730.26,290.10 729.08,294.50 C726.73,303.27 720.83,319.06 718.42,323.00 L 716.89 325.50 L 717.44 322.50 C719.29,312.46 720.30,288.45 719.25,279.49 L 718.13 269.92 L 710.82 262.14 C702.61,253.42 695.21,242.88 691.34,234.42 C688.15,227.47 684.00,212.66 684.00,208.26 C684.00,206.47 683.66,205.01 683.25,205.03 C682.84,205.04 680.70,207.78 678.50,211.10 C671.36,221.90 656.92,233.94 642.12,241.44 C624.03,250.60 594.05,258.58 568.17,261.12 C554.78,262.43 554.35,262.68 547.36,273.00 C540.85,282.61 538.61,290.90 538.72,305.00 C538.77,311.33 539.26,318.41 539.80,320.75 C540.35,323.10 540.40,325.00 539.91,325.00 C537.74,325.00 529.19,304.11 527.01,293.50 C525.23,284.82 524.61,284.00 519.89,284.00 C511.94,284.00 507.45,292.04 507.59,306.00 C507.69,316.19 510.42,324.97 516.10,333.45 C522.00,342.24 528.44,347.20 537.98,350.29 L 545.39 352.70 L 548.12 360.83 C551.89,372.05 559.99,387.15 566.68,395.43 L 572.29 402.36 L 571.71 423.43 C570.69,460.69 568.15,464.52 538.50,473.45 C530.25,475.93 521.25,478.71 518.50,479.62 C515.75,480.53 508.55,482.75 502.50,484.56 C496.58,486.33 490.93,488.10 485.53,489.87 C489.47,488.53 492.83,487.43 495.00,486.80 C496.92,486.25 498.67,485.63 498.88,485.43 C499.09,485.24 497.17,482.76 494.63,479.93 C487.11,471.57 481.08,456.22 481.02,445.31 C481.01,443.55 480.58,441.86 480.06,441.54 C478.60,440.63 477.73,449.10 478.20,459.76 C478.55,467.83 479.08,470.39 481.29,474.68 C482.76,477.53 484.42,480.14 484.98,480.49 C487.07,481.78 485.90,482.83 483.24,482.07 C467.77,477.63 454.67,462.47 450.61,444.30 C446.93,427.85 449.52,409.68 460.64,374.00 C468.99,347.21 471.23,335.78 477.00,290.50 C484.23,233.69 491.95,203.60 505.65,178.84 C528.51,137.51 574.53,111.04 623.50,111.04 C635.72,111.04 652.27,113.28 661.00,116.13 C669.57,118.92 681.08,124.94 688.40,130.44 C692.17,133.27 695.77,135.10 698.40,135.51 C725.80,139.73 746.26,162.03 760.32,203.00 C768.81,227.76 774.62,257.63 780.04,304.50 C782.71,327.55 787.12,347.41 796.03,376.50 C806.66,411.21 807.42,414.78 807.40,430.00 C807.38,442.49 807.16,444.02 804.54,450.50 C798.75,464.76 790.10,474.67 778.74,480.04 C770.53,483.93 769.07,483.82 772.79,479.58 C779.12,472.38 782.27,455.67 779.59,443.50 C778.74,439.60 778.67,439.74 776.95,449.24 C774.67,461.80 769.73,471.97 762.05,479.94 L 756.46 485.75 ZM 455.89 500.68 C434.11,509.62 418.95,518.59 410.42,527.59 C418.86,518.68 433.76,509.70 453.64,501.58 C454.34,501.30 455.09,501.00 455.89,500.68 ZM 823.32 512.75 C821.12,511.51 818.79,510.28 816.31,509.06 C808.02,504.95 799.34,501.13 789.55,497.32 C792.59,498.48 795.33,499.57 797.49,500.46 C807.80,504.74 816.26,508.72 823.32,512.75 ZM 778.65 493.25 C772.60,491.07 766.10,488.86 759.03,486.58 L 759.93 486.83 C762.97,487.66 770.65,490.33 778.65,493.25 Z" fill="rgba(3,3,3,1)"/>
<path d="M 787.77 737.00 L 788.37 731.75 C789.19,724.52 789.82,712.24 791.05,679.50 C792.55,639.58 795.32,622.85 804.80,596.50 C811.42,578.12 824.05,551.00 826.01,551.00 C827.80,551.00 827.05,555.82 824.12,563.22 C815.59,584.73 806.46,616.72 803.56,635.20 C801.23,650.05 797.60,710.06 798.81,713.75 C799.03,714.44 799.95,715.03 800.86,715.06 C801.99,715.11 801.80,715.41 800.25,716.03 C798.17,716.87 798.00,717.56 798.00,725.39 C798.00,730.03 797.73,734.55 797.39,735.42 C796.85,736.84 800.47,737.00 833.89,737.00 L 787.77 737.00 ZM 458.28 737.00 L 457.65 731.75 C457.30,728.86 457.01,724.14 457.01,721.25 C457.00,716.93 456.69,716.00 455.25,715.98 C453.85,715.97 453.78,715.79 454.90,715.08 C456.03,714.37 456.17,711.89 455.61,701.85 C454.49,681.76 452.03,650.10 450.92,641.50 C448.22,620.62 441.32,594.30 431.84,568.77 C428.63,560.12 426.00,552.59 426.00,552.02 C426.00,551.46 426.60,551.00 427.33,551.00 C428.69,551.00 440.66,574.98 445.55,587.50 C451.06,601.62 455.02,614.58 457.43,626.39 C459.92,638.59 460.39,643.57 464.00,696.50 C465.09,712.45 466.25,728.09 466.59,731.25 L 467.20 737.00 L 458.28 737.00 ZM 614.00 538.34 C623.35,539.25 639.29,538.84 648.68,537.45 C678.48,533.03 702.96,520.40 720.39,500.47 C726.99,492.92 734.47,480.56 733.44,478.90 C733.35,478.75 733.06,478.57 732.66,478.37 C735.23,479.17 737.79,479.96 740.22,480.71 C736.69,479.79 735.83,479.92 736.39,480.82 C737.20,482.14 732.63,491.02 727.79,497.50 C714.40,515.45 695.70,528.58 672.97,536.01 C633.99,548.75 583.68,543.16 552.83,522.67 C539.01,513.50 523.42,496.07 519.45,485.37 C518.46,482.69 517.60,480.41 517.54,480.30 C517.33,479.90 491.15,487.97 478.14,492.45 C467.68,496.04 458.41,499.57 450.26,503.06 C464.51,496.87 481.92,490.71 502.50,484.56 C508.55,482.75 515.75,480.53 518.50,479.62 C521.25,478.71 530.25,475.93 538.50,473.45 C544.18,471.74 548.87,470.21 552.74,468.61 C548.64,470.33 543.64,471.98 537.50,473.87 C526.93,477.13 522.84,478.20 522.17,480.35 C521.70,481.84 522.90,483.85 524.72,487.47 C528.05,494.09 535.77,503.56 542.73,509.56 C562.14,526.33 584.83,535.48 614.00,538.34 ZM 696.98 465.99 C700.98,468.29 706.25,470.15 713.24,472.34 C716.83,473.46 721.81,475.01 727.10,476.65 C723.81,475.68 718.57,474.06 713.24,472.38 C706.25,470.17 700.98,468.29 696.98,465.99 ZM 816.31 509.06 C806.03,503.97 794.58,499.10 781.18,494.17 C794.53,499.05 805.74,503.82 816.31,509.06 ZM 566.24 458.44 C570.37,451.70 571.22,441.50 571.71,423.43 C571.22,441.53 570.41,451.70 566.24,458.44 Z" fill="rgba(109,152,59,1)"/>
<path d="M 456.13 716.21 L 445.25 714.59 C433.58,712.86 390.40,704.48 387.61,703.40 C386.59,703.01 385.99,703.96 385.48,708.21 C385.52,707.86 385.55,707.55 385.59,707.29 L 386.11 703.09 L 380.30 701.52 C364.35,697.21 360.00,695.61 360.02,694.07 C360.04,691.17 364.43,668.48 370.86,637.93 C381.85,585.77 395.13,547.09 407.60,530.87 C417.75,517.68 439.98,505.57 478.14,492.45 C491.15,487.97 517.33,479.90 517.54,480.30 C517.60,480.41 518.46,482.69 519.45,485.37 C523.42,496.07 539.01,513.50 552.83,522.67 C583.68,543.16 633.99,548.75 672.97,536.01 C695.70,528.58 714.40,515.45 727.79,497.50 C732.63,491.02 737.20,482.14 736.39,480.82 C735.47,479.33 738.42,479.96 751.03,483.94 C778.50,492.60 799.06,500.52 816.31,509.06 C836.54,519.07 847.09,529.00 855.05,545.51 C864.01,564.07 877.00,607.60 884.90,645.50 C886.04,651.00 887.89,659.78 888.99,665.00 C891.55,677.09 893.96,690.89 893.98,693.60 C894.00,695.78 893.48,695.98 873.85,701.43 L 868.19 703.00 L 868.45 705.40 C868.45,705.38 868.44,705.36 868.44,705.35 L 868.01 703.20 L 860.76 705.10 C852.86,707.18 814.07,714.40 804.67,715.54 C801.97,715.87 799.56,716.51 798.75,717.07 C799.09,716.57 799.56,716.31 800.25,716.03 C801.80,715.41 801.99,715.11 800.86,715.06 C799.95,715.03 799.03,714.44 798.81,713.75 C797.60,710.06 801.23,650.05 803.56,635.20 C806.46,616.72 815.59,584.73 824.12,563.22 C827.05,555.82 827.80,551.00 826.01,551.00 C824.05,551.00 811.42,578.12 804.80,596.50 C795.32,622.85 792.55,639.58 791.05,679.50 C789.82,712.24 789.19,724.52 788.37,731.75 L 787.77 737.00 L 467.20 737.00 L 466.59 731.25 C466.25,728.09 465.09,712.45 464.00,696.50 C460.39,643.57 459.92,638.59 457.43,626.39 C455.02,614.58 451.06,601.62 445.55,587.50 C440.66,574.98 428.69,551.00 427.33,551.00 C426.60,551.00 426.00,551.46 426.00,552.02 C426.00,552.59 428.63,560.12 431.84,568.77 C441.32,594.30 448.22,620.62 450.92,641.50 C452.03,650.10 454.49,681.76 455.61,701.85 C456.17,711.89 456.03,714.37 454.90,715.08 C453.78,715.79 453.85,715.97 455.25,715.98 C455.61,715.99 455.90,716.05 456.13,716.21 ZM 614.00 538.34 C584.83,535.48 562.14,526.33 542.73,509.56 C535.77,503.56 528.05,494.09 524.72,487.47 C522.90,483.85 521.70,481.84 522.17,480.35 C522.84,478.20 526.93,477.13 537.50,473.87 C547.75,470.72 554.86,468.23 559.81,464.93 C556.65,467.25 553.06,469.21 550.66,469.70 C549.10,470.02 547.61,470.85 547.35,471.54 C546.64,473.39 552.16,483.73 557.11,489.80 C568.48,503.74 590.12,515.01 611.30,518.01 C614.71,518.50 623.86,518.69 631.63,518.45 C652.50,517.79 669.02,513.01 682.85,503.63 C685.79,501.63 688.32,500.00 688.46,500.00 C689.28,500.00 698.83,489.69 699.96,487.57 C700.71,486.18 702.17,484.13 703.20,483.02 C704.23,481.91 704.86,481.00 704.59,481.00 C704.32,481.00 704.57,479.65 705.15,478.00 C705.73,476.35 706.53,475.00 706.93,475.00 C707.33,475.00 707.59,474.04 707.51,472.86 C707.39,471.24 706.05,470.23 702.02,468.73 C699.45,467.77 697.01,466.36 694.85,464.64 C699.06,467.60 704.94,469.75 713.24,472.38 C721.08,474.86 728.74,477.18 730.26,477.55 C731.78,477.92 733.21,478.53 733.44,478.90 C734.47,480.56 726.99,492.92 720.39,500.47 C702.96,520.40 678.48,533.03 648.68,537.45 C639.29,538.84 623.35,539.25 614.00,538.34 ZM 871.00 735.39 L 871.00 737.00 L 837.61 737.00 C867.82,736.99 870.84,736.84 871.00,735.39 ZM 685.42 447.03 C686.13,451.25 687.10,454.60 688.49,457.35 C687.65,455.90 686.97,454.39 686.50,452.84 C686.12,451.58 685.76,449.65 685.42,447.03 ZM 564.93 460.32 C568.59,455.69 570.17,449.36 570.97,439.38 C570.11,450.55 568.53,455.61 565.33,459.82 C565.20,459.98 565.07,460.15 564.93,460.32 ZM 682.80 403.05 L 683.09 410.76 L 682.72 403.15 L 682.80 403.05 ZM 798.01 722.85 C798.04,720.42 798.12,718.94 798.37,717.99 C798.25,718.91 798.12,720.68 798.01,722.85 ZM 797.53 735.99 C797.32,735.83 797.31,735.64 797.39,735.42 C797.46,735.25 797.52,734.93 797.58,734.51 L 797.53 735.99 ZM 870.48 727.15 C870.79,730.94 871.00,733.86 871.00,734.67 L 871.00 734.84 C870.96,733.57 870.76,730.67 870.48,727.15 ZM 457.65 731.75 C457.30,728.86 457.01,724.21 457.01,721.42 C457.02,724.32 457.31,728.92 457.65,731.75 Z" fill="rgba(145,204,63,1)"/>
<path d="M 383.38 734.25 C383.67,732.74 384.17,727.00 384.49,721.50 C385.39,705.80 385.92,702.75 387.61,703.40 C390.40,704.48 433.58,712.86 445.25,714.59 L 457.00 716.34 L 457.01 721.42 C457.01,724.21 457.30,728.86 457.65,731.75 L 458.28 737.00 L 420.56 737.00 L 382.84 737.00 L 383.38 734.25 ZM 797.80 727.75 C797.97,722.66 798.27,717.99 798.47,717.38 C798.68,716.76 801.46,715.93 804.67,715.54 C814.07,714.40 852.86,707.18 860.76,705.10 L 868.01 703.20 L 868.44 705.35 C868.90,707.66 871.02,732.35 871.01,735.25 C871.00,736.88 868.58,737.00 834.25,737.00 L 797.50 737.00 L 797.80 727.75 ZM 611.30 518.01 C590.12,515.01 568.48,503.74 557.11,489.80 C552.16,483.73 546.64,473.39 547.35,471.54 C547.61,470.85 549.10,470.02 550.66,469.70 C554.76,468.86 562.32,463.76 565.33,459.82 C569.77,453.99 571.08,446.53 571.71,423.43 L 572.29 402.36 L 566.68 395.43 C559.99,387.15 551.89,372.05 548.12,360.83 L 545.39 352.70 L 537.98 350.29 C528.44,347.20 522.00,342.24 516.10,333.45 C510.42,324.97 507.69,316.19 507.59,306.00 C507.45,292.04 511.94,284.00 519.89,284.00 C524.61,284.00 525.23,284.82 527.01,293.50 C529.19,304.11 537.74,325.00 539.91,325.00 C540.40,325.00 540.35,323.10 539.80,320.75 C539.26,318.41 538.77,311.33 538.72,305.00 C538.61,290.90 540.85,282.61 547.36,273.00 C554.35,262.68 554.78,262.43 568.17,261.12 C594.05,258.58 624.03,250.60 642.12,241.44 C656.92,233.94 671.36,221.90 678.50,211.10 C680.70,207.78 682.84,205.04 683.25,205.03 C683.66,205.01 684.00,206.47 684.00,208.26 C684.00,212.66 688.15,227.47 691.34,234.42 C695.21,242.88 702.61,253.42 710.82,262.14 L 718.13 269.92 L 719.25 279.49 C720.30,288.45 719.29,312.46 717.44,322.50 L 716.89 325.50 L 718.42 323.00 C720.83,319.06 726.73,303.27 729.08,294.50 C730.26,290.10 731.68,285.94 732.23,285.25 C732.79,284.56 734.96,284.00 737.05,284.00 C747.64,284.00 752.52,301.02 747.09,319.00 C742.08,335.55 730.42,347.80 716.74,350.86 C711.24,352.09 711.18,352.14 709.50,357.30 C704.95,371.24 696.03,387.47 687.24,397.82 L 682.72 403.15 L 683.79 425.32 C684.52,440.22 685.40,449.25 686.50,452.84 C688.60,459.73 694.75,466.02 702.02,468.73 C706.05,470.23 707.39,471.24 707.51,472.86 C707.59,474.04 707.33,475.00 706.93,475.00 C706.53,475.00 705.73,476.35 705.15,478.00 C704.57,479.65 704.32,481.00 704.59,481.00 C704.86,481.00 704.23,481.91 703.20,483.02 C702.17,484.13 700.71,486.18 699.96,487.57 C698.83,489.69 689.28,500.00 688.46,500.00 C688.32,500.00 685.79,501.63 682.85,503.63 C669.02,513.01 652.50,517.79 631.63,518.45 C623.86,518.69 614.71,518.50 611.30,518.01 Z" fill="rgba(253,208,166,1)"/>
</g>
</svg>